<?xml version="1.0" encoding="UTF-8"?>
<!DOCTYPE svg PUBLIC "-//W3C//DTD SVG 1.1//EN" "http://www.w3.org/Graphics/SVG/1.1/DTD/svg11.dtd">
<!-- Creator: CorelDRAW X7 -->
<svg xmlns="http://www.w3.org/2000/svg" xml:space="preserve" width="45.3868mm" height="10.66mm" version="1.1" style="shape-rendering:geometricPrecision; text-rendering:geometricPrecision; image-rendering:optimizeQuality; fill-rule:evenodd; clip-rule:evenodd"
viewBox="0 0 4539 1066"
 xmlns:xlink="http://www.w3.org/1999/xlink">
 <defs>
  <style type="text/css">
   <![CDATA[
    .fil0 {fill:#FEFEFE}
    .fil1 {fill:#234497}
    .fil2 {fill:#234497;fill-rule:nonzero}
   ]]>
  </style>
 </defs>
<symbol id="Fm1-16-0" viewBox="6150 -19203 6855 18024">
 <polygon class="fil0" points="13005,-19203 11092,-19203 6150,-1179 8063,-1179 "/>
</symbol>
<symbol id="Fm0-15-0" viewBox="4237 -19203 6855 18024">
 <polygon class="fil0" points="11092,-19203 9179,-19203 4237,-1179 6150,-1179 "/>
</symbol>
<symbol id="Fm2-17-0" viewBox="8063 -19203 6855 18024">
 <polygon class="fil0" points="14918,-19203 13005,-19203 8063,-1179 9976,-1179 "/>
</symbol>
 <g id="Layer_x0020_1">
  <metadata id="CorelCorpID_0Corel-Layer"/>
  <g id="_1789545067872">
   <path class="fil1" d="M107 177c0,-38 47,-73 90,-73l94 0c68,0 132,61 132,128l0 14c0,109 -177,209 -229,287 16,24 95,104 120,129 32,31 98,92 98,148l0 28c0,53 -65,121 -114,121l-114 0c-35,0 -77,-39 -77,-70l0 -712zm444 65c0,-25 -7,-60 -14,-79 -8,-21 -32,-50 -35,-59l94 0c59,0 128,54 128,111l0 31c0,75 -249,254 -249,287 0,0 190,195 208,214 36,36 70,69 106,105 20,20 89,89 101,107l-381 0c24,-35 49,-66 49,-125l0 -17c0,-70 -52,-121 -88,-159 -24,-25 -100,-111 -120,-125 56,-84 201,-145 201,-284l0 -7zm291 -24c0,-58 -34,-82 -56,-114 93,0 146,-10 172,64 14,44 5,172 5,230 0,157 0,314 0,471l-333 -339c52,-77 212,-161 212,-274l0 -38zm-842 -21l0 686c0,95 90,183 187,183l707 0c86,0 173,-94 173,-187l0 -702c0,-92 -91,-177 -187,-177l-693 0c-107,0 -187,89 -187,197z"/>
   <path class="fil2" d="M1234 273l257 0c43,0 76,13 99,37 23,25 34,56 34,93 0,30 -8,57 -24,79 -11,14 -27,26 -48,34 32,9 55,25 70,47 15,22 23,49 23,82 0,27 -6,51 -16,73 -11,21 -26,38 -44,51 -12,8 -29,13 -53,17 -31,5 -51,7 -61,7l-237 0 0 -520zm138 204l60 0c21,0 36,-4 45,-13 8,-9 12,-21 12,-37 0,-15 -4,-27 -12,-36 -9,-8 -23,-13 -44,-13l-61 0 0 99zm0 204l70 0c24,0 41,-5 50,-15 10,-9 15,-23 15,-39 0,-15 -5,-28 -15,-37 -9,-9 -26,-14 -50,-14l-70 0 0 105zm607 26l-156 0 -22 86 -140 0 167 -520 150 0 167 520 -144 0 -22 -86zm-29 -112l-49 -187 -49 187 98 0zm239 -322l129 0 166 287 0 -287 130 0 0 520 -130 0 -165 -286 0 286 -130 0 0 -520zm517 0l137 0 0 196 144 -196 183 0 -189 251 196 269 -169 0 -165 -229 0 229 -137 0 0 -520zm724 0l257 0c43,0 76,13 99,37 23,25 35,56 35,93 0,30 -9,57 -25,79 -11,14 -27,26 -48,34 32,9 55,25 71,47 15,22 22,49 22,82 0,27 -5,51 -16,73 -11,21 -25,38 -44,51 -11,8 -29,13 -52,17 -31,5 -52,7 -62,7l-237 0 0 -520zm139 204l59 0c22,0 37,-4 45,-13 9,-9 13,-21 13,-37 0,-15 -4,-27 -13,-36 -8,-8 -23,-13 -44,-13l-60 0 0 99zm0 204l70 0c23,0 40,-5 50,-15 9,-9 14,-23 14,-39 0,-15 -4,-28 -14,-37 -10,-9 -27,-14 -51,-14l-69 0 0 105zm345 112l0 -520 229 0c43,0 75,4 97,13 23,8 41,24 55,47 13,23 20,52 20,85 0,28 -5,53 -16,74 -10,21 -24,38 -43,51 -12,9 -28,16 -48,21 16,6 28,13 36,19 4,4 12,14 21,27 10,14 16,25 20,33l66 150 -155 0 -73 -159c-10,-20 -18,-33 -25,-40 -10,-8 -21,-12 -34,-12l-12 0 0 211 -138 0zm138 -309l58 0c6,0 19,-2 37,-7 9,-2 16,-7 22,-16 6,-9 8,-19 8,-30 0,-17 -4,-30 -13,-39 -9,-9 -26,-14 -51,-14l-61 0 0 106zm349 -211l138 0 0 520 -138 0 0 -520z"/>
  </g>
 </g>
</svg>
