<?xml version="1.0" encoding="UTF-8"?>
<svg id="margin" xmlns="http://www.w3.org/2000/svg" version="1.1" viewBox="0 0 2581.74 601.7">
  <!-- Generator: Adobe Illustrator 29.5.0, SVG Export Plug-In . SVG Version: 2.1.0 Build 137)  -->
  <defs>
    <style>
      .st0 {
        fill: #00aed6;
        fill-rule: evenodd;
      }
    </style>
  </defs>
  <g>
    <path d="M1092.31,120.84c2.92,0,5.84,2.92,5.84,5.84v271.58h0v29.2c0,78.85-64.24,143.09-143.09,143.09h-17.52c-55.48,0-102.21-20.44-140.17-55.48-2.92-2.92-2.92-5.84,0-8.76l43.8-40.88c2.92-2.92,5.84-2.92,8.76,0,20.44,23.36,52.56,37.96,87.61,37.96h0c23.36,0,46.72-5.84,61.32-20.44,17.52-14.6,26.28-37.96,26.28-64.24v-14.6c-11.68,11.68-29.2,20.44-35.04,23.36-14.6,5.84-32.12,8.76-49.64,8.76-90.53,0-163.53-75.93-160.61-166.45,2.92-81.77,70.08-148.93,151.85-151.85,20.44,0,40.88,2.92,58.4,8.76,5.84,2.92,26.28,8.76,37.96,23.36v-14.6h0v-8.76c0-2.92,2.92-5.84,5.84-5.84h58.41ZM1022.22,275.61c0-46.72-37.96-87.61-87.61-87.61-46.72,0-87.61,37.96-87.61,87.61s37.96,87.61,87.61,87.61c46.72,0,87.61-37.96,87.61-87.61h0Z"/>
    <path d="M1457.33,275.61c0,87.61-70.09,160.61-160.61,160.61s-160.61-70.08-160.61-160.61,70.09-160.61,160.61-160.61,160.61,73.01,160.61,160.61ZM1384.33,275.61c0-49.64-37.96-87.61-87.61-87.61s-87.61,37.96-87.61,87.61,37.96,87.61,87.61,87.61,87.61-40.88,87.61-87.61Z"/>
    <path d="M1670.51,115c87.61,0,157.69,70.09,157.69,157.69s-70.09,163.53-160.61,163.53c-32.12,0-61.32-8.76-87.61-26.28v146.01c0,2.92-2.92,5.84-5.84,5.84h-64.24c-2.92,0-5.84-2.92-5.84-5.84V126.68c0-2.92,2.92-5.84,5.84-5.84h64.24c2.92,0,5.84,2.92,5.84,5.84v14.6c26.28-17.52,58.4-26.28,90.53-26.28h0ZM1755.2,281.45c2.92-49.64-37.96-93.45-87.61-93.45-43.8,0-81.77,32.12-87.61,75.93v26.28c5.84,43.8,43.8,75.93,90.53,75.93,46.72-5.84,81.77-40.88,84.69-84.69h0Z"/>
    <path d="M2018.01,115c87.61,0,143.09,43.8,143.09,119.73v189.81c0,2.92-2.92,5.84-5.84,5.84h-64.24c-2.92,0-5.84-2.92-5.84-5.84v-32.12,2.92c-17.52,26.28-58.4,40.88-102.21,40.88-67.16,0-113.89-35.04-113.89-90.53s35.04-84.69,131.41-99.29c55.48-8.76,73.01-14.6,73.01-32.12,0-20.44-20.44-32.12-52.56-32.12-37.96,0-64.24,17.52-73.01,49.64,0,2.92-2.92,5.84-5.84,2.92l-70.09-14.6c-2.92,0-5.84-2.92-5.84-5.84,17.52-58.4,75.93-99.29,151.85-99.29h0ZM2085.18,275.61h0c-8.76,11.68-26.28,20.44-67.16,26.28-52.56,8.76-70.09,20.44-70.09,37.96,0,20.44,14.6,26.28,49.64,26.28,49.64,0,90.53-23.36,90.53-52.56v-37.96h-2.92Z"/>
    <path d="M2540.29,129.27l-209.23,429.18c-.97,2-3,3.26-5.22,3.26h-77.65c-4.31,0-7.11-4.53-5.19-8.39l68.14-136.13-140.72-287.92c-1.89-3.85.92-8.35,5.21-8.35h77.65c2.25,0,4.3,1.3,5.26,3.35l97.27,208.33,95.74-208.3c.95-2.06,3.01-3.38,5.27-3.38h78.23c4.29,0,7.1,4.49,5.22,8.34h.02Z"/>
  </g>
  <path class="st0" d="M600.69,277.94c-2.79-61.35-55.77-108.75-117.12-105.97H179.61c-11.15,0-22.31-8.37-22.31-22.31s8.37-19.52,22.31-19.52h309.53c-2.79-39.04-30.67-80.87-72.5-86.45-89.23-16.73-181.26-16.73-270.49,0-50.19,8.37-86.45,58.56-94.81,105.97-13.94,94.81-13.94,189.62,0,284.44,11.15,55.77,55.77,97.6,111.54,105.97,114.33,13.94,223.09,13.94,334.63,0,50.19-5.58,80.87-52.98,92.02-100.39,11.15-55.77,13.94-108.75,11.15-161.74h0ZM503.09,342.08v19.52c0,11.15-8.37,22.31-22.31,22.31s-22.31-8.37-22.31-22.31v-19.52c-8.24-5.03-11.15-13.94-11.15-22.31,0-16.73,16.32-30.67,33.05-30.67,13.94,0,32.49,11.22,32.49,30.53.47,9.89-4.71,19.78-9.77,22.46h0Z"/>
</svg>