<svg width="1528" height="491" viewBox="0 0 1528 491" fill="none" xmlns="http://www.w3.org/2000/svg">
<path d="M451.055 110.325C459.214 109.825 471.863 110.749 479.949 111.901C517.85 117.196 552.026 137.509 574.775 168.264C604.427 207.849 610.098 253.048 603.214 300.73C528.866 301.822 452.522 300.686 377.977 300.856C393.032 350.176 430.013 370.71 481.22 365.167C504.633 362.633 521.206 352.4 535.414 333.808C542.419 338.064 550.59 343.806 557.528 348.409C569.182 355.993 580.769 363.677 592.29 371.46C589.235 375.384 586.059 379.214 582.768 382.941C526.191 445.883 418.955 447.563 356.778 392.106C290.71 333.177 286.382 223.372 345.09 157.922C373.386 126.378 409.515 112.474 451.055 110.325ZM454.541 174.888C411.328 177.487 386.419 200.507 377.096 242.307L457.473 242.368L533.7 242.237C522.932 198.212 500.705 176.185 454.541 174.888Z" fill="#0E66E9"/>
<path d="M843.811 0.00209808L913.454 0L913.552 148.28C916.212 144.524 919.177 140.992 922.416 137.721C961.112 98.4004 1038.92 102.424 1076.95 140.941C1109.89 174.308 1111.36 216.358 1111.38 259.896V309.807L1111.37 424.707L1041.61 424.678C1042.23 378.708 1041.63 331.38 1041.61 285.3C1041.71 258.164 1044.73 214.792 1024.31 194.439C997.762 167.971 947.232 173.883 926.192 204.821C916.004 219.801 914.594 234.816 913.751 252.456C913.209 272.099 913.521 291.753 913.534 311.299L913.54 424.696L843.732 424.698L843.655 149.908C843.634 100.449 842.931 49.2814 843.811 0.00209808Z" fill="#0E66E9"/>
<path d="M1304.59 110.325C1347.14 108.225 1392.3 126.729 1422.23 156.7C1448.19 182.939 1464.26 217.361 1467.68 254.105C1469.48 272.378 1468.78 298.861 1468.77 317.866C1446.22 318.162 1423.66 318.162 1401.1 317.866C1401.21 301.242 1402.26 283.057 1400.93 266.628C1390 131.659 1199.68 151.325 1217.22 286.982C1220.75 314.295 1233.69 334.685 1255.62 351.281C1287.72 371.929 1328.69 372.512 1361.22 351.578C1370.3 345.738 1375.56 339.092 1381.9 330.656L1381.86 403.991C1361.01 421.486 1337.16 430.095 1310.16 431.53C1269.9 433.324 1230.56 419.065 1200.81 391.887C1169.03 363.144 1150.13 322.851 1148.34 280.051C1145.75 236.87 1160.46 194.432 1189.23 162.111C1220.31 127.754 1259.08 112.564 1304.59 110.325Z" fill="#0E66E9"/>
<path d="M154.217 110.462C162.592 109.774 179.014 110.861 187.391 112.235C234.489 119.964 263.724 139.502 291.583 176.747C272.707 190.876 253.332 204.753 234.64 218.996C225.711 206.71 219.579 198.538 205.904 190.267C185.712 178.054 158.847 175.172 136.133 180.958C114.372 186.402 95.744 200.419 84.493 219.815C59.284 262.416 69.36 325.132 113.752 350.988C138.617 365.47 171.983 366.991 198.183 355.208C214.079 348.059 226.182 335.522 234.89 320.666L246.812 328.558C260.666 338.371 279.331 349.682 293.894 359.109C264.987 403.217 222.381 428.567 169.485 431.771C126.754 434.448 84.716 420.011 52.657 391.651C-24.8531 322.89 -15.3727 191.479 71.729 135.604C97.917 118.806 123.543 112.232 154.217 110.462Z" fill="#0E66E9"/>
<path d="M731.208 29.1875C731.739 29.3595 732.081 29.8135 732.52 30.2375L732.625 117.283L801.24 117.303L801.355 182.975L732.677 183.071L732.592 274.807C732.519 335.11 723.953 375.903 802.347 358.414L802.482 423.695C788.361 427.113 775.933 428.071 761.516 428.245C657.725 427.043 663.052 359.22 663.153 281.157L663.069 183.09L614.546 182.952C614.823 161.074 614.893 139.194 614.757 117.315L663.198 117.275L663.24 48.3535L731.208 29.1875Z" fill="#0E66E9"/>
<path d="M1401.28 337L1468.71 336.98C1468.68 350.607 1468.64 364.538 1468.89 378.126C1469.7 422.173 1487.34 429.563 1527.57 422.385L1527.76 463.418C1527.78 469.722 1528.07 481.303 1527.3 487.113C1517.04 489.206 1506.59 490.264 1496.12 490.27C1470.53 490.389 1445.1 484.522 1426.21 466.126C1395.03 435.753 1401.3 378.447 1401.28 337Z" fill="#F09D10"/>
</svg>
