<svg width="117" height="73" viewBox="0 0 117 73" fill="none" xmlns="http://www.w3.org/2000/svg">
<path d="M25 49.5988C46.686 62.7744 94.0462 77.1564 109.999 29.2793M109.999 29.2793L113.045 36.8486M109.999 29.2793L102 32.5" stroke="#F59E0B" stroke-width="4" stroke-linecap="round"/>
<path d="M18.186 45.218C16.87 45.218 15.568 45.008 14.28 44.588C12.992 44.196 11.83 43.594 10.794 42.782C9.786 41.942 8.96 40.892 8.316 39.632C7.672 38.344 7.35 36.818 7.35 35.054C7.35 34.27 7.406 33.486 7.518 32.702C7.63 31.918 7.798 31.134 8.022 30.35C6.762 30.042 5.642 29.65 4.662 29.174C3.682 28.67 2.842 28.124 2.142 27.536C1.442 26.92 0.91 26.276 0.546 25.604C0.182 24.932 0 24.26 0 23.588C0 22.412 0.35 21.32 1.05 20.312C1.778 19.304 2.618 18.436 3.57 17.708C4.55 16.98 5.544 16.406 6.552 15.986C7.56 15.566 8.358 15.356 8.946 15.356C9.422 15.356 9.66 15.51 9.66 15.818C9.66 16.014 9.59 16.168 9.45 16.28C9.31 16.392 9.114 16.546 8.862 16.742C8.554 16.966 8.204 17.246 7.812 17.582C7.448 17.89 7.098 18.282 6.762 18.758C6.426 19.206 6.146 19.752 5.922 20.396C5.698 21.012 5.586 21.754 5.586 22.622C5.586 23.546 5.81 24.47 6.258 25.394C6.734 26.29 7.63 27.018 8.946 27.578C9.73 25.674 10.738 23.882 11.97 22.202C13.23 20.494 14.574 19.01 16.002 17.75C17.458 16.462 18.942 15.454 20.454 14.726C21.994 13.97 23.436 13.592 24.78 13.592C25.62 13.592 26.404 13.788 27.132 14.18C27.888 14.572 28.532 15.062 29.064 15.65C29.596 16.238 30.016 16.882 30.324 17.582C30.632 18.254 30.786 18.884 30.786 19.472C30.786 20.564 30.38 21.768 29.568 23.084C28.784 24.4 27.65 25.632 26.166 26.78C24.71 27.928 22.932 28.894 20.832 29.678C18.76 30.462 16.422 30.882 13.818 30.938C13.482 32.366 13.314 33.78 13.314 35.18C13.314 37.868 13.846 39.8 14.91 40.976C16.002 42.124 17.556 42.698 19.572 42.698C20.328 42.698 21.084 42.572 21.84 42.32C22.596 42.068 23.324 41.732 24.024 41.312C24.752 40.892 25.424 40.402 26.04 39.842C26.656 39.254 27.202 38.638 27.678 37.994C27.706 37.91 27.776 37.812 27.888 37.7C27.944 37.644 28.028 37.588 28.14 37.532C28.252 37.448 28.378 37.406 28.518 37.406C28.77 37.406 28.98 37.49 29.148 37.658C29.316 37.826 29.4 38.022 29.4 38.246C29.4 38.358 29.372 38.47 29.316 38.582C29.288 38.666 29.246 38.764 29.19 38.876C29.134 38.988 29.078 39.114 29.022 39.254C28.546 39.982 27.958 40.696 27.258 41.396C26.558 42.096 25.746 42.74 24.822 43.328C23.898 43.888 22.876 44.336 21.756 44.672C20.664 45.036 19.474 45.218 18.186 45.218ZM25.242 16.448C24.318 16.448 23.352 16.77 22.344 17.414C21.336 18.058 20.342 18.94 19.362 20.06C18.41 21.152 17.514 22.426 16.674 23.882C15.834 25.31 15.134 26.822 14.574 28.418C16.478 28.362 18.186 27.984 19.698 27.284C21.238 26.556 22.54 25.674 23.604 24.638C24.668 23.602 25.48 22.496 26.04 21.32C26.6 20.144 26.88 19.052 26.88 18.044C26.88 17.568 26.74 17.19 26.46 16.91C26.18 16.602 25.774 16.448 25.242 16.448ZM32.7255 36.23C33.4815 36.23 34.1955 36.02 34.8675 35.6C35.5395 35.18 36.1135 34.676 36.5895 34.088C37.0935 33.472 37.4855 32.842 37.7655 32.198C38.0455 31.554 38.1855 31.008 38.1855 30.56C38.1855 30 37.9335 29.72 37.4295 29.72C36.8415 29.72 36.2675 29.958 35.7075 30.434C35.1475 30.91 34.6435 31.484 34.1955 32.156C33.7755 32.828 33.4255 33.542 33.1455 34.298C32.8655 35.054 32.7255 35.698 32.7255 36.23ZM44.0235 39.254C43.4075 40.234 42.6375 41.102 41.7135 41.858C40.9295 42.502 39.9495 43.09 38.7735 43.622C37.6255 44.154 36.2535 44.42 34.6575 44.42C33.5935 44.42 32.6135 44.266 31.7175 43.958C30.8215 43.65 30.0515 43.23 29.4075 42.698C28.7635 42.138 28.2595 41.48 27.8955 40.724C27.5315 39.968 27.3495 39.142 27.3495 38.246C27.3495 36.65 27.6435 35.194 28.2315 33.878C28.8195 32.562 29.5615 31.442 30.4575 30.518C31.3535 29.566 32.3195 28.838 33.3555 28.334C34.4195 27.83 35.4135 27.578 36.3375 27.578C36.9815 27.578 37.5835 27.704 38.1435 27.956C38.7035 28.208 39.1935 28.544 39.6135 28.964C40.0335 29.356 40.3555 29.818 40.5795 30.35C40.8315 30.882 40.9575 31.428 40.9575 31.988C40.9575 32.492 40.8455 33.108 40.6215 33.836C40.3975 34.536 40.0195 35.208 39.4875 35.852C38.9835 36.496 38.2835 37.056 37.3875 37.532C36.5195 37.98 35.4275 38.204 34.1115 38.204C33.8035 38.204 33.4815 38.162 33.1455 38.078C32.9495 38.05 32.7395 38.008 32.5155 37.952C32.5155 39.212 32.8795 40.178 33.6075 40.85C34.3355 41.522 35.2035 41.858 36.2115 41.858C37.1915 41.858 38.0875 41.662 38.8995 41.27C39.7115 40.85 40.3975 40.402 40.9575 39.926C41.6295 39.366 42.2035 38.722 42.6795 37.994C42.7075 37.91 42.7775 37.812 42.8895 37.7C42.9455 37.644 43.0295 37.588 43.1415 37.532C43.2535 37.448 43.3795 37.406 43.5195 37.406C43.7435 37.406 43.9395 37.49 44.1075 37.658C44.3035 37.826 44.4015 38.022 44.4015 38.246C44.4015 38.358 44.3735 38.47 44.3175 38.582C44.2895 38.666 44.2475 38.764 44.1915 38.876C44.1355 38.988 44.0795 39.114 44.0235 39.254ZM49.6273 41.606C50.1873 41.606 50.7333 41.424 51.2653 41.06C51.8253 40.696 52.3153 40.276 52.7353 39.8C53.2393 39.296 53.7013 38.694 54.1213 37.994C54.1493 37.91 54.2193 37.812 54.3313 37.7C54.3873 37.644 54.4713 37.588 54.5833 37.532C54.6953 37.448 54.8213 37.406 54.9613 37.406C55.1853 37.406 55.3813 37.49 55.5493 37.658C55.7453 37.826 55.8433 38.022 55.8433 38.246C55.8433 38.358 55.8153 38.47 55.7593 38.582C55.7313 38.666 55.6893 38.764 55.6333 38.876C55.5773 38.988 55.5213 39.114 55.4653 39.254C54.8493 40.234 54.1633 41.102 53.4073 41.858C52.7633 42.502 51.9933 43.09 51.0973 43.622C50.2293 44.154 49.2773 44.42 48.2413 44.42C47.5693 44.42 46.8833 44.294 46.1833 44.042C45.4833 43.818 44.8393 43.482 44.2513 43.034C43.6913 42.586 43.2153 42.054 42.8233 41.438C42.4593 40.822 42.2773 40.15 42.2773 39.422C42.2773 38.834 42.3473 38.12 42.4873 37.28C42.6273 36.412 42.8233 35.474 43.0753 34.466C43.3273 33.458 43.6073 32.394 43.9153 31.274C44.2513 30.154 44.6013 29.048 44.9653 27.956H43.8313C43.6073 27.956 43.4953 27.83 43.4953 27.578C43.4953 27.354 43.6213 27.06 43.8733 26.696C44.1533 26.304 44.4473 26.108 44.7553 26.108H45.5953C46.0153 24.96 46.4213 23.91 46.8133 22.958C47.2333 21.978 47.6393 21.152 48.0313 20.48C48.1433 20.256 48.2973 20.074 48.4933 19.934C48.6893 19.766 48.9133 19.682 49.1653 19.682C49.4733 19.682 49.8093 19.78 50.1733 19.976C50.5653 20.172 50.9293 20.41 51.2653 20.69C51.6013 20.942 51.8813 21.208 52.1053 21.488C52.3293 21.768 52.4413 22.006 52.4413 22.202C52.4413 22.398 52.3013 22.846 52.0213 23.546C51.7693 24.218 51.4473 25.072 51.0553 26.108H53.8693C54.0933 26.108 54.2053 26.234 54.2053 26.486C54.2053 26.598 54.1633 26.738 54.0793 26.906C53.9953 27.074 53.8833 27.242 53.7433 27.41C53.6313 27.55 53.5053 27.676 53.3653 27.788C53.2253 27.9 53.0853 27.956 52.9453 27.956H50.3413C50.0053 28.88 49.6553 29.86 49.2913 30.896C48.9553 31.932 48.6473 32.954 48.3673 33.962C48.0873 34.97 47.8493 35.95 47.6533 36.902C47.4853 37.826 47.4013 38.666 47.4013 39.422C47.4013 40.066 47.6113 40.598 48.0313 41.018C48.4793 41.41 49.0113 41.606 49.6273 41.606ZM68.7566 44.42C67.1606 44.42 65.8726 44 64.8926 43.16C63.9126 42.292 63.4226 41.172 63.4226 39.8C63.4226 39.044 63.5346 38.302 63.7586 37.574C63.9826 36.818 64.2346 36.104 64.5146 35.432C64.7946 34.76 65.0466 34.144 65.2706 33.584C65.4946 33.024 65.6066 32.548 65.6066 32.156C65.6066 31.344 65.2986 30.938 64.6826 30.938C63.9546 30.938 63.2126 31.246 62.4566 31.862C61.7006 32.45 61.0146 33.304 60.3986 34.424C59.8106 35.516 59.3206 36.846 58.9286 38.414C58.5646 39.954 58.3826 41.676 58.3826 43.58C58.3826 43.832 58.3266 44.028 58.2146 44.168C58.1306 44.336 57.9346 44.42 57.6266 44.42C57.2066 44.42 56.7586 44.378 56.2826 44.294C55.8066 44.21 55.3586 44.084 54.9386 43.916C54.5186 43.72 54.1826 43.482 53.9306 43.202C53.6506 42.894 53.5106 42.544 53.5106 42.152C53.5106 40.976 53.6646 39.492 53.9726 37.7C54.2806 35.88 54.7286 33.962 55.3166 31.946C55.9046 29.902 56.6046 27.858 57.4166 25.814C58.2286 23.77 59.1386 21.936 60.1466 20.312C61.1546 18.66 62.2466 17.33 63.4226 16.322C64.5986 15.286 65.8446 14.768 67.1606 14.768C67.6366 14.768 68.0986 14.894 68.5466 15.146C68.9946 15.37 69.4006 15.678 69.7646 16.07C70.1286 16.434 70.4086 16.84 70.6046 17.288C70.8286 17.708 70.9406 18.1 70.9406 18.464C70.9406 19.332 70.6606 20.34 70.1006 21.488C69.5406 22.608 68.9106 23.686 68.2106 24.722C67.5386 25.758 66.9086 26.654 66.3206 27.41C65.7326 28.138 65.3966 28.544 65.3126 28.628C65.3406 28.6 65.4526 28.53 65.6486 28.418C65.8726 28.306 66.1386 28.194 66.4466 28.082C66.7546 27.942 67.1046 27.83 67.4966 27.746C67.9166 27.634 68.3506 27.578 68.7986 27.578C69.1066 27.578 69.4146 27.662 69.7226 27.83C70.0586 27.998 70.3526 28.222 70.6046 28.502C70.8566 28.782 71.0666 29.09 71.2346 29.426C71.4026 29.762 71.4866 30.112 71.4866 30.476C71.4866 31.12 71.3466 31.834 71.0666 32.618C70.7866 33.374 70.4786 34.172 70.1426 35.012C69.8066 35.824 69.4986 36.664 69.2186 37.532C68.9386 38.372 68.7986 39.198 68.7986 40.01C68.7986 40.486 68.9106 40.878 69.1346 41.186C69.3866 41.466 69.7226 41.606 70.1426 41.606C70.7026 41.606 71.2486 41.424 71.7806 41.06C72.3406 40.696 72.8306 40.276 73.2506 39.8C73.7546 39.296 74.2166 38.694 74.6366 37.994C74.6646 37.91 74.7346 37.812 74.8466 37.7C74.9026 37.644 74.9866 37.588 75.0986 37.532C75.2106 37.448 75.3366 37.406 75.4766 37.406C75.7006 37.406 75.8966 37.49 76.0646 37.658C76.2606 37.826 76.3586 38.022 76.3586 38.246C76.3586 38.358 76.3306 38.47 76.2746 38.582C76.2466 38.666 76.2046 38.764 76.1486 38.876C76.0926 38.988 76.0366 39.114 75.9806 39.254C75.3646 40.234 74.6786 41.102 73.9226 41.858C73.2786 42.502 72.5086 43.09 71.6126 43.622C70.7446 44.154 69.7926 44.42 68.7566 44.42ZM68.8826 18.422C68.8826 17.862 68.6166 17.582 68.0846 17.582C67.6926 17.582 67.2166 17.918 66.6566 18.59C66.1246 19.234 65.5366 20.144 64.8926 21.32C64.2766 22.468 63.6186 23.84 62.9186 25.436C62.2466 27.032 61.5746 28.768 60.9026 30.644C61.3786 30.252 61.9106 29.734 62.4986 29.09C63.0866 28.446 63.6746 27.746 64.2626 26.99C64.8506 26.234 65.4246 25.436 65.9846 24.596C66.5446 23.756 67.0346 22.958 67.4546 22.202C67.8746 21.418 68.2106 20.704 68.4626 20.06C68.7426 19.388 68.8826 18.842 68.8826 18.422ZM95.9424 39.254C95.3264 40.234 94.6404 41.102 93.8844 41.858C93.2404 42.502 92.4704 43.09 91.5744 43.622C90.7064 44.154 89.7544 44.42 88.7184 44.42C87.5424 44.42 86.5484 44.126 85.7364 43.538C84.9244 42.922 84.4484 42.026 84.3084 40.85C83.7484 41.55 83.1464 42.152 82.5024 42.656C81.9424 43.104 81.3124 43.51 80.6124 43.874C79.9124 44.238 79.1564 44.42 78.3444 44.42C77.7844 44.42 77.2384 44.308 76.7064 44.084C76.2024 43.888 75.7544 43.594 75.3624 43.202C74.9984 42.81 74.7044 42.348 74.4804 41.816C74.2564 41.284 74.1444 40.696 74.1444 40.052C74.1444 38.54 74.4244 37.042 74.9844 35.558C75.5724 34.074 76.3284 32.744 77.2524 31.568C78.1764 30.364 79.2124 29.398 80.3604 28.67C81.5084 27.942 82.6564 27.578 83.8044 27.578C84.6444 27.578 85.3584 27.69 85.9464 27.914C86.5344 28.11 87.0104 28.334 87.3744 28.586C87.7944 28.894 88.1304 29.216 88.3824 29.552C88.6904 29.552 89.0124 29.594 89.3484 29.678C89.7124 29.734 90.0344 29.846 90.3144 30.014C90.6224 30.154 90.8744 30.35 91.0704 30.602C91.2664 30.854 91.3644 31.162 91.3644 31.526C91.3644 31.834 91.2384 32.338 90.9864 33.038C90.7344 33.738 90.4544 34.522 90.1464 35.39C89.8384 36.23 89.5584 37.112 89.3064 38.036C89.0544 38.932 88.9284 39.73 88.9284 40.43C88.9284 40.766 89.0264 41.046 89.2224 41.27C89.4464 41.494 89.7404 41.606 90.1044 41.606C90.6644 41.606 91.2104 41.424 91.7424 41.06C92.3024 40.696 92.7924 40.276 93.2124 39.8C93.7164 39.296 94.1784 38.694 94.5984 37.994C94.6264 37.91 94.6964 37.812 94.8084 37.7C94.8644 37.644 94.9484 37.588 95.0604 37.532C95.1724 37.448 95.2984 37.406 95.4384 37.406C95.6624 37.406 95.8584 37.49 96.0264 37.658C96.2224 37.826 96.3204 38.022 96.3204 38.246C96.3204 38.358 96.2924 38.47 96.2364 38.582C96.2084 38.666 96.1664 38.764 96.1104 38.876C96.0544 38.988 95.9984 39.114 95.9424 39.254ZM86.1984 31.82C86.1984 31.204 86.0444 30.756 85.7364 30.476C85.4564 30.168 85.1064 30.014 84.6864 30.014C84.0704 30.014 83.4404 30.336 82.7964 30.98C82.1524 31.624 81.5644 32.422 81.0324 33.374C80.5284 34.298 80.1084 35.306 79.7724 36.398C79.4364 37.49 79.2684 38.47 79.2684 39.338C79.2684 40.598 79.6744 41.228 80.4864 41.228C80.9904 41.228 81.5644 40.892 82.2084 40.22C82.8804 39.548 83.5104 38.722 84.0984 37.742C84.6864 36.762 85.1764 35.74 85.5684 34.676C85.9884 33.584 86.1984 32.632 86.1984 31.82Z" fill="white"/>
</svg>
