<svg width="924" height="869" viewBox="0 0 924 869" fill="none" xmlns="http://www.w3.org/2000/svg">
<path d="M430.457 0.107569C446.779 -0.445331 470.049 1.22256 485.911 3.06606C574.993 13.3701 658.6 51.3521 724.959 111.665C727.866 114.276 730.772 116.892 733.58 119.643C740.212 126.141 747.194 131.817 747.323 141.949C747.425 149.98 745.039 155.038 739.505 160.607C719.414 180.825 699.19 200.913 679.004 221.036L652.899 247.041C647.275 252.657 639.06 262.209 632.112 265.375C615.246 273.059 604.307 258.344 593.116 248.646C587.939 244.16 582.228 239.892 576.603 235.83C533.177 204.401 480.592 188.18 427.006 189.686C361.435 192.036 299.497 220.39 254.871 268.485C211.17 315.387 187.55 377.52 189.059 441.606C191.343 506.471 219.277 567.778 266.729 612.067C345.789 687.215 465.204 700.572 558.916 644.749C571.746 637.098 583.557 628.223 595.036 618.645C600.343 614.216 607.931 605.277 613.398 601.937C616.971 599.745 621.067 598.552 625.258 598.482C637.43 598.362 647.065 611.069 655.16 619.207L682.902 646.966C699.844 664.295 717.389 681.141 734.432 698.386C741.49 705.528 749.359 711.014 749.72 722.032C749.969 729.594 747.464 735.341 742.202 740.694C731.805 751.088 720.735 760.926 709.399 770.266C635.098 831.259 542.607 865.787 446.511 868.407C331.373 871.479 219.753 828.571 136.327 749.166C52.0656 669.69 3.01665 559.87 0.0675477 444.083C-1.96695 328.373 42.0285 216.589 122.385 133.3C187.191 65.5101 272.32 20.6761 364.885 5.58307C387.143 1.98207 408.059 0.687369 430.457 0.107569Z" fill="#2368E5"/>
<path d="M803.071 429.429C816.951 429.018 825.263 441.023 834.445 450.242L868.59 484.55L901.304 517.252C908.468 524.426 920.125 533.904 922.637 543.526C926.446 558.118 911.437 569.027 902.154 578.306L865.383 615.054L833.677 646.774C825.418 655.035 818.647 664.641 806.795 666.765C792.755 667.135 786.009 656.74 776.898 647.541L748.11 618.699L710.336 580.959C704.11 574.735 697.684 568.478 691.694 562.087C685.753 555.951 684.864 543.775 689.997 536.935C694.202 531.334 700.697 525.399 705.784 520.323L734.468 491.68L772.615 453.38C779.172 446.803 786.028 439.614 792.969 433.457C795.731 431.008 799.505 430.06 803.071 429.429Z" fill="#F09D10"/>
</svg>
