<svg width="92" height="104" viewBox="0 0 92 104" fill="none" xmlns="http://www.w3.org/2000/svg">
<rect y="5" width="92" height="92" rx="46" fill="white"/>
<path d="M47.31 76.03C38.63 76.03 29.25 70.78 29.25 59.09C29.25 56.5 29.67 53.84 30.37 51.25C22.04 49.22 17 44.46 17 39.98C17 32.14 27.99 26.26 31.91 26.26C32.82 26.26 33.1 26.61 33.1 27.03C33.1 27.66 32.61 27.94 31.77 28.57C29.81 30.04 26.31 32.63 26.31 38.37C26.31 41.45 27.57 44.81 31.91 46.63C37.23 33.96 49.27 23.32 58.3 23.32C63.97 23.32 68.31 29.13 68.31 33.12C68.31 40.47 57.32 51.88 40.03 52.23C39.47 54.61 39.19 56.99 39.19 59.3C39.19 68.19 42.9 71.83 49.62 71.83C54.59 71.83 59.98 68.33 63.13 63.99C63.13 63.99 63.69 63.01 64.53 63.01C65.37 63.01 66 63.64 66 64.41C66 65.04 65.37 66.09 65.37 66.09C62.22 70.85 55.85 76.03 47.31 76.03ZM59.07 28.08C52.98 28.08 45 37.39 41.29 48.03C54.03 47.61 61.8 37.39 61.8 30.74C61.8 29.2 60.82 28.08 59.07 28.08Z" fill="#2563EB"/>
<path d="M27 67.5001C30 81.5 66.5 90 73.0089 56.5099M73.0089 56.5099L68.5084 59.0093M73.0089 56.5099L75.511 61.5122" stroke="#F59E0B" stroke-width="3" stroke-linecap="round"/>
</svg>
