<svg width="38" height="38" viewBox="0 0 38 38" fill="none" xmlns="http://www.w3.org/2000/svg">
<g clip-path="url(#clip0_51_17225)">
<path d="M26.125 14.1534L27.55 15.1446L26.0284 18.6422C25.9617 18.8024 25.947 18.9794 25.9862 19.1484C26.0254 19.3174 26.1166 19.4699 26.247 19.5844C26.3774 19.6989 26.5404 19.7696 26.713 19.7866C26.8857 19.8036 27.0594 19.7661 27.2096 19.6792L30.8892 17.6098L34.5689 19.6792C34.7191 19.7667 34.893 19.8047 35.0661 19.788C35.2391 19.7712 35.4025 19.7006 35.5332 19.586C35.6639 19.4714 35.7553 19.3186 35.7945 19.1493C35.8337 18.9799 35.8187 18.8025 35.7517 18.6422L34.2285 15.1446L36.9772 13.2287C37.097 13.1228 37.1811 12.9824 37.2179 12.8268C37.2547 12.6712 37.2424 12.508 37.1827 12.3596C37.123 12.2112 37.0189 12.085 36.8845 11.9982C36.7502 11.9114 36.5923 11.8684 36.4325 11.875H33.2658L31.6318 7.57783C31.5609 7.441 31.4538 7.32628 31.3222 7.24621C31.1905 7.16613 31.0394 7.12378 30.8853 7.12378C30.7312 7.12378 30.58 7.16613 30.4484 7.24621C30.3167 7.32628 30.2096 7.441 30.1387 7.57783L28.5111 11.875H26.9167" fill="#14B8A6"/>
<path d="M33.2643 11.875L31.6318 7.57783C31.561 7.441 31.4538 7.32628 31.3222 7.24621C31.1905 7.16613 31.0394 7.12378 30.8853 7.12378C30.7312 7.12378 30.5801 7.16613 30.4484 7.24621C30.3168 7.32628 30.2096 7.441 30.1388 7.57783L28.5111 11.875H26.9167L26.125 14.1518L27.55 15.143L26.0284 18.6406C25.9601 18.8093 25.9501 18.996 25.9999 19.171L33.2959 11.875H33.2643Z" fill="#E9EFFD"/>
<path d="M11.875 14.1534L10.45 15.1446L11.9732 18.6422C12.0398 18.8024 12.0546 18.9794 12.0154 19.1484C11.9762 19.3174 11.885 19.4699 11.7546 19.5844C11.6242 19.6989 11.4612 19.7696 11.2885 19.7866C11.1159 19.8036 10.9422 19.7661 10.792 19.6792L7.11075 17.6098L3.43108 19.6792C3.28086 19.7661 3.1072 19.8036 2.93453 19.7866C2.76186 19.7696 2.59887 19.6989 2.46849 19.5844C2.33811 19.4699 2.2469 19.3174 2.20769 19.1484C2.16848 18.9794 2.18325 18.8024 2.24991 18.6422L3.77308 15.1446L1.02441 13.2287C0.904578 13.1228 0.820478 12.9824 0.783667 12.8268C0.746857 12.6712 0.759143 12.508 0.818836 12.3596C0.87853 12.2112 0.982703 12.085 1.11704 11.9982C1.25138 11.9114 1.40929 11.8684 1.56908 11.875H4.73575L6.36658 7.57783C6.43746 7.441 6.54457 7.32628 6.67623 7.24621C6.80789 7.16613 6.95902 7.12378 7.11312 7.12378C7.26722 7.12378 7.41835 7.16613 7.55001 7.24621C7.68167 7.32628 7.78879 7.441 7.85966 7.57783L9.48575 11.875H11.0833" fill="#14B8A6"/>
<path d="M2.21669 18.9826L9.43669 11.761L7.85335 7.57783C7.78248 7.441 7.67536 7.32628 7.5437 7.24621C7.41204 7.16613 7.26091 7.12378 7.10681 7.12378C6.95271 7.12378 6.80158 7.16613 6.66992 7.24621C6.53826 7.32628 6.43115 7.441 6.36027 7.57783L4.73735 11.875H1.57069C1.41086 11.8679 1.25276 11.9105 1.11821 11.9971C0.983654 12.0836 0.879287 12.2098 0.81951 12.3582C0.759734 12.5066 0.747496 12.6699 0.784486 12.8255C0.821477 12.9812 0.905871 13.1215 1.02602 13.2272L3.7731 15.143L2.25152 18.6406C2.215 18.7507 2.20311 18.8674 2.21669 18.9826Z" fill="#E9EFFD"/>
<path d="M19.7552 1.24446L21.3829 5.54162H24.5496C24.7091 5.5356 24.8666 5.57895 25.0006 5.66574C25.1346 5.75253 25.2385 5.87854 25.2983 6.02659C25.358 6.17464 25.3706 6.33751 25.3344 6.49299C25.2982 6.64847 25.2149 6.78899 25.0958 6.89537L22.3472 8.81121L23.8703 12.3088C23.937 12.469 23.9517 12.646 23.9125 12.8151C23.8733 12.9841 23.7821 13.1365 23.6517 13.251C23.5214 13.3655 23.3584 13.4362 23.1857 13.4532C23.013 13.4702 22.8394 13.4327 22.6892 13.3459L19.0095 11.2765L15.3282 13.3459C15.178 13.4327 15.0044 13.4702 14.8317 13.4532C14.659 13.4362 14.496 13.3655 14.3656 13.251C14.2353 13.1365 14.1441 12.9841 14.1048 12.8151C14.0656 12.646 14.0804 12.469 14.1471 12.3088L15.675 8.81121L12.9216 6.89537C12.8017 6.78947 12.7176 6.64906 12.6808 6.49342C12.644 6.33779 12.6563 6.17458 12.716 6.02622C12.7757 5.87785 12.8799 5.75161 13.0142 5.66484C13.1485 5.57807 13.3064 5.53502 13.4662 5.54162H16.6329L18.2622 1.24446C18.333 1.10763 18.4401 0.992907 18.5718 0.912832C18.7035 0.832756 18.8546 0.790405 19.0087 0.790405C19.1628 0.790405 19.3139 0.832756 19.4456 0.912832C19.5772 0.992907 19.6844 1.10763 19.7552 1.24446Z" fill="#14B8A6"/>
<path d="M21.3829 5.54162L19.7553 1.24446C19.6844 1.10763 19.5773 0.992907 19.4456 0.912832C19.3139 0.832756 19.1628 0.790405 19.0087 0.790405C18.8546 0.790405 18.7035 0.832756 18.5718 0.912832C18.4402 0.992907 18.3331 1.10763 18.2622 1.24446L16.6329 5.54162H13.4663C13.3068 5.53542 13.1494 5.57863 13.0154 5.66534C12.8815 5.75204 12.7776 5.878 12.718 6.026C12.6584 6.174 12.646 6.3368 12.6824 6.49213C12.7188 6.64746 12.8024 6.78775 12.9216 6.89379L15.675 8.80962L14.1471 12.3072C14.0782 12.4904 14.0782 12.6924 14.1471 12.8756L21.4779 5.54162H21.3829Z" fill="#E9EFFD"/>
<path d="M19.7552 1.24446L21.3829 5.54162H24.5496C24.7091 5.5356 24.8666 5.57895 25.0006 5.66574C25.1346 5.75253 25.2385 5.87854 25.2983 6.02659C25.358 6.17464 25.3706 6.33751 25.3344 6.49299C25.2982 6.64847 25.2149 6.78899 25.0958 6.89537L22.3472 8.81121L23.8703 12.3088C23.937 12.469 23.9517 12.646 23.9125 12.8151C23.8733 12.9841 23.7821 13.1365 23.6517 13.251C23.5214 13.3655 23.3584 13.4362 23.1857 13.4532C23.013 13.4702 22.8394 13.4327 22.6892 13.3459L19.0095 11.2765L15.3282 13.3459C15.178 13.4327 15.0044 13.4702 14.8317 13.4532C14.659 13.4362 14.496 13.3655 14.3656 13.251C14.2353 13.1365 14.1441 12.9841 14.1048 12.8151C14.0656 12.646 14.0804 12.469 14.1471 12.3088L15.675 8.81121L12.9216 6.89537C12.8017 6.78947 12.7176 6.64906 12.6808 6.49342C12.644 6.33779 12.6563 6.17458 12.716 6.02622C12.7757 5.87785 12.8799 5.75161 13.0142 5.66484C13.1485 5.57807 13.3064 5.53502 13.4662 5.54162H16.6329L18.2622 1.24446C18.333 1.10763 18.4401 0.992907 18.5718 0.912832C18.7035 0.832756 18.8546 0.790405 19.0087 0.790405C19.1628 0.790405 19.3139 0.832756 19.4456 0.912832C19.5772 0.992907 19.6844 1.10763 19.7552 1.24446Z" stroke="#111827" stroke-width="1.2" stroke-linecap="round" stroke-linejoin="round"/>
<path d="M11.875 14.1534L10.45 15.1446L11.9732 18.6422C12.0398 18.8024 12.0546 18.9794 12.0154 19.1484C11.9762 19.3174 11.885 19.4699 11.7546 19.5844C11.6242 19.6989 11.4612 19.7696 11.2885 19.7866C11.1159 19.8036 10.9422 19.7661 10.792 19.6792L7.11075 17.6098L3.43108 19.6792C3.28086 19.7661 3.1072 19.8036 2.93453 19.7866C2.76186 19.7696 2.59887 19.6989 2.46849 19.5844C2.33811 19.4699 2.2469 19.3174 2.20769 19.1484C2.16848 18.9794 2.18325 18.8024 2.24991 18.6422L3.77308 15.1446L1.02441 13.2287C0.904578 13.1228 0.820478 12.9824 0.783667 12.8268C0.746857 12.6712 0.759143 12.508 0.818836 12.3596C0.87853 12.2112 0.982703 12.085 1.11704 11.9982C1.25138 11.9114 1.40929 11.8684 1.56908 11.875H4.73575L6.36658 7.57783C6.43746 7.441 6.54457 7.32628 6.67623 7.24621C6.80789 7.16613 6.95902 7.12378 7.11312 7.12378C7.26722 7.12378 7.41835 7.16613 7.55001 7.24621C7.68167 7.32628 7.78879 7.441 7.85966 7.57783L9.48575 11.875H11.0833" stroke="#111827" stroke-width="1.2" stroke-linecap="round" stroke-linejoin="round"/>
<path d="M26.125 14.1534L27.55 15.1446L26.0284 18.6422C25.9617 18.8024 25.947 18.9794 25.9862 19.1484C26.0254 19.3174 26.1166 19.4699 26.247 19.5844C26.3774 19.6989 26.5404 19.7696 26.713 19.7866C26.8857 19.8036 27.0594 19.7661 27.2096 19.6792L30.8892 17.6098L34.5689 19.6792C34.7191 19.7667 34.893 19.8047 35.0661 19.788C35.2391 19.7712 35.4025 19.7006 35.5332 19.586C35.6639 19.4714 35.7553 19.3186 35.7945 19.1493C35.8337 18.9799 35.8187 18.8025 35.7517 18.6422L34.2285 15.1446L36.9772 13.2287C37.097 13.1228 37.1811 12.9824 37.2179 12.8268C37.2547 12.6712 37.2424 12.508 37.1827 12.3596C37.123 12.2112 37.0189 12.085 36.8845 11.9982C36.7502 11.9114 36.5923 11.8684 36.4325 11.875H33.2658L31.6318 7.57783C31.5609 7.441 31.4538 7.32628 31.3222 7.24621C31.1905 7.16613 31.0394 7.12378 30.8853 7.12378C30.7312 7.12378 30.58 7.16613 30.4484 7.24621C30.3167 7.32628 30.2096 7.441 30.1387 7.57783L28.5111 11.875H26.9167" stroke="#111827" stroke-width="1.2" stroke-linecap="round" stroke-linejoin="round"/>
<path d="M19.0539 30.875C20.0716 30.875 21.0665 30.5732 21.9127 30.0078C22.759 29.4424 23.4185 28.6387 23.808 27.6984C24.1975 26.7582 24.2994 25.7235 24.1008 24.7253C23.9023 23.7271 23.4122 22.8102 22.6925 22.0906C21.9728 21.3709 21.0559 20.8808 20.0578 20.6823C19.0596 20.4837 18.0249 20.5856 17.0846 20.9751C16.1443 21.3646 15.3407 22.0241 14.7752 22.8703C14.2098 23.7166 13.908 24.7115 13.908 25.7292C13.908 27.094 14.4502 28.4028 15.4152 29.3679C16.3802 30.3329 17.6891 30.875 19.0539 30.875Z" fill="#E9EFFD" stroke="#111827" stroke-width="1.2" stroke-linecap="round" stroke-linejoin="round"/>
<path d="M26.0997 37.2083C25.3281 36.0213 24.2723 35.0458 23.028 34.3705C21.7837 33.6953 20.3904 33.3416 18.9747 33.3416C17.5589 33.3416 16.1657 33.6953 14.9214 34.3705C13.6771 35.0458 12.6212 36.0213 11.8497 37.2083" fill="#BBCFF9"/>
<path d="M26.0997 37.2083C25.3281 36.0213 24.2723 35.0458 23.028 34.3705C21.7837 33.6953 20.3904 33.3416 18.9747 33.3416C17.5589 33.3416 16.1657 33.6953 14.9214 34.3705C13.6771 35.0458 12.6212 36.0213 11.8497 37.2083" stroke="#111827" stroke-width="1.2" stroke-linecap="round" stroke-linejoin="round"/>
</g>
<defs>
<clipPath id="clip0_51_17225">
<rect width="38" height="38" fill="white"/>
</clipPath>
</defs>
</svg>
