<svg width="38" height="38" viewBox="0 0 38 38" fill="none" xmlns="http://www.w3.org/2000/svg">
<g clip-path="url(#clip0_51_17237)">
<path d="M16.625 32.4583C19.7565 32.4583 22.8177 31.5297 25.4215 29.7899C28.0253 28.0501 30.0547 25.5773 31.2531 22.6841C32.4514 19.791 32.765 16.6074 32.1541 13.536C31.5431 10.4647 30.0351 7.64344 27.8208 5.42911C25.6065 3.21478 22.7853 1.7068 19.7139 1.09587C16.6425 0.484933 13.459 0.798486 10.5658 1.99687C7.67264 3.19526 5.19981 5.22466 3.46002 7.82844C1.72023 10.4322 0.791626 13.4934 0.791626 16.625C0.791626 20.8242 2.45978 24.8515 5.4291 27.8208C8.39843 30.7901 12.4257 32.4583 16.625 32.4583Z" fill="#BBCFF9"/>
<path d="M16.625 0.791629C13.5033 0.792498 10.4516 1.71611 7.85332 3.44636C5.25507 5.17662 3.22625 7.63631 2.02189 10.5163C0.817516 13.3962 0.491335 16.5679 1.08434 19.6328C1.67735 22.6976 3.16308 25.5187 5.35479 27.7415L27.74 5.35796C24.7817 2.43022 20.787 0.789098 16.625 0.791629Z" fill="#E9EFFD"/>
<path d="M16.625 32.4583C19.7565 32.4583 22.8177 31.5297 25.4215 29.7899C28.0253 28.0501 30.0547 25.5773 31.2531 22.6841C32.4514 19.791 32.765 16.6074 32.1541 13.536C31.5431 10.4647 30.0351 7.64344 27.8208 5.42911C25.6065 3.21478 22.7853 1.7068 19.7139 1.09587C16.6425 0.484933 13.459 0.798486 10.5658 1.99687C7.67264 3.19526 5.19981 5.22466 3.46002 7.82844C1.72023 10.4322 0.791626 13.4934 0.791626 16.625C0.791626 20.8242 2.45978 24.8515 5.4291 27.8208C8.39843 30.7901 12.4257 32.4583 16.625 32.4583Z" stroke="#111827" stroke-width="1.2" stroke-linecap="round" stroke-linejoin="round"/>
<path d="M27.8224 27.8224L37.2084 37.2084" stroke="#111827" stroke-width="1.2" stroke-linecap="round" stroke-linejoin="round"/>
<path d="M21.375 15.0417C21.375 15.4616 21.2082 15.8644 20.9113 16.1613C20.6144 16.4582 20.2116 16.625 19.7917 16.625H18.2084V13.4584H19.7917C20.2116 13.4584 20.6144 13.6252 20.9113 13.9221C21.2082 14.2191 21.375 14.6218 21.375 15.0417Z" stroke="#111827" stroke-width="1.2" stroke-linecap="round" stroke-linejoin="round"/>
<path d="M21.375 18.2083C21.375 18.6283 21.2082 19.031 20.9113 19.3279C20.6144 19.6249 20.2116 19.7917 19.7917 19.7917H18.2084V16.625H19.7917C20.2116 16.625 20.6144 16.7918 20.9113 17.0887C21.2082 17.3857 21.375 17.7884 21.375 18.2083Z" stroke="#111827" stroke-width="1.2" stroke-linecap="round" stroke-linejoin="round"/>
<path d="M15.0417 18.2084C15.0417 18.6283 14.8749 19.031 14.5779 19.328C14.281 19.6249 13.8783 19.7917 13.4583 19.7917C13.0384 19.7917 12.6357 19.6249 12.3387 19.328C12.0418 19.031 11.875 18.6283 11.875 18.2084V15.0417C11.875 14.6218 12.0418 14.2191 12.3387 13.9221C12.6357 13.6252 13.0384 13.4584 13.4583 13.4584C13.8783 13.4584 14.281 13.6252 14.5779 13.9221C14.8749 14.2191 15.0417 14.6218 15.0417 15.0417V18.2084Z" stroke="#111827" stroke-width="1.2" stroke-linecap="round" stroke-linejoin="round"/>
<path d="M8.70829 13.4584V18.2084C8.70829 18.6283 8.54148 19.031 8.24454 19.328C7.94761 19.6249 7.54489 19.7917 7.12496 19.7917C6.70503 19.7917 6.30231 19.6249 6.00537 19.328C5.70844 19.031 5.54163 18.6283 5.54163 18.2084" stroke="#111827" stroke-width="1.2" stroke-linecap="round" stroke-linejoin="round"/>
<path d="M27.7083 13.4584H26.125C25.705 13.4584 25.3023 13.6252 25.0054 13.9221C24.7084 14.2191 24.5416 14.6218 24.5416 15.0417C24.5416 15.4616 24.7084 15.8644 25.0054 16.1613C25.3023 16.4582 25.705 16.625 26.125 16.625C26.5449 16.625 26.9476 16.7919 27.2445 17.0888C27.5415 17.3857 27.7083 17.7884 27.7083 18.2084C27.7083 18.6283 27.5415 19.031 27.2445 19.328C26.9476 19.6249 26.5449 19.7917 26.125 19.7917H24.5416" stroke="#111827" stroke-width="1.2" stroke-linecap="round" stroke-linejoin="round"/>
</g>
<defs>
<clipPath id="clip0_51_17237">
<rect width="38" height="38" fill="white"/>
</clipPath>
</defs>
</svg>
