<svg width="38" height="38" viewBox="0 0 38 38" fill="none" xmlns="http://www.w3.org/2000/svg">
<g clip-path="url(#clip0_214_140)">
<path d="M29.2917 37.2083H2.37499C1.95506 37.2083 1.55234 37.0415 1.2554 36.7445C0.958472 36.4476 0.791656 36.0449 0.791656 35.625V2.37496C0.791656 1.95504 0.958472 1.55231 1.2554 1.25538C1.55234 0.958443 1.95506 0.791628 2.37499 0.791628H23.4191C23.6275 0.791256 23.834 0.832046 24.0266 0.911656C24.2193 0.991267 24.3943 1.10813 24.5417 1.25555L30.4142 7.12496C30.7112 7.42182 30.8781 7.82449 30.8782 8.24438V35.625C30.8782 35.8332 30.8371 36.0393 30.7573 36.2316C30.6776 36.4239 30.5607 36.5986 30.4133 36.7457C30.2659 36.8927 30.091 37.0093 29.8985 37.0887C29.7061 37.1681 29.4998 37.2087 29.2917 37.2083Z" fill="#BBCFF9"/>
<path d="M27.4803 4.19263L24.5417 1.25555C24.3943 1.10813 24.2193 0.991267 24.0266 0.911656C23.834 0.832046 23.6275 0.791256 23.4191 0.791628H2.37499C1.95506 0.791628 1.55234 0.958444 1.2554 1.25538C0.958472 1.55231 0.791656 1.95504 0.791656 2.37496V30.8829L27.4803 4.19263Z" fill="#E9EFFD"/>
<path d="M13.4583 37.2083H2.37499C1.95506 37.2083 1.55234 37.0415 1.2554 36.7445C0.958472 36.4476 0.791656 36.0449 0.791656 35.625V2.37496C0.791656 1.95503 0.958472 1.55231 1.2554 1.25537C1.55234 0.958441 1.95506 0.791626 2.37499 0.791626H23.4207C23.6288 0.791463 23.835 0.832353 24.0274 0.911958C24.2197 0.991562 24.3945 1.10832 24.5417 1.25554L30.4142 7.12496C30.7112 7.42182 30.8781 7.82448 30.8782 8.24438V13.4583" stroke="#111827" stroke-width="1.2" stroke-linecap="round" stroke-linejoin="round"/>
<path d="M5.54166 13.8874L7.25799 15.6005C7.33883 15.6823 7.43651 15.7455 7.54425 15.7857C7.65198 15.8259 7.76718 15.8421 7.88182 15.8333C7.99642 15.824 8.10762 15.7899 8.2077 15.7333C8.30778 15.6767 8.39432 15.599 8.46132 15.5055L11.875 10.7207" stroke="#111827" stroke-width="1.2" stroke-linecap="round" stroke-linejoin="round"/>
<path d="M16.625 13.4584H22.9583" stroke="#111827" stroke-width="1.2" stroke-linecap="round" stroke-linejoin="round"/>
<path d="M5.54166 21.8041L7.25641 23.5173C7.33742 23.5993 7.43537 23.6626 7.54339 23.7028C7.65142 23.743 7.76692 23.7591 7.88182 23.75C7.99642 23.7408 8.10762 23.7066 8.2077 23.65C8.30778 23.5934 8.39432 23.5157 8.46132 23.4223L11.875 18.6375" stroke="#111827" stroke-width="1.2" stroke-linecap="round" stroke-linejoin="round"/>
<path d="M16.625 21.375H22.9583" stroke="#111827" stroke-width="1.2" stroke-linecap="round" stroke-linejoin="round"/>
<path d="M36.2283 23.9368L24.1474 36.0193L18.2099 37.2068L19.3974 31.2693L31.4783 19.1868C32.1065 18.5588 32.9586 18.2059 33.8469 18.2059C34.7353 18.2059 35.5873 18.5588 36.2156 19.1868L36.2283 19.2011C36.5394 19.5119 36.7862 19.8811 36.9546 20.2874C37.123 20.6937 37.2097 21.1292 37.2097 21.569C37.2097 22.0088 37.123 22.4443 36.9546 22.8506C36.7862 23.2569 36.5394 23.626 36.2283 23.9368Z" fill="#14B8A6" stroke="#111827" stroke-width="1.2" stroke-linecap="round" stroke-linejoin="round"/>
</g>
<defs>
<clipPath id="clip0_214_140">
<rect width="38" height="38" fill="white"/>
</clipPath>
</defs>
</svg>
