<svg width="80" height="80" viewBox="0 0 80 80" fill="none" xmlns="http://www.w3.org/2000/svg">
<g clip-path="url(#clip0_57_192)">
<path d="M58.3666 11.6667C59.2507 11.6667 60.0985 12.0179 60.7236 12.643C61.3488 13.2681 61.7 14.116 61.7 15V75C61.7 75.8841 61.3488 76.7319 60.7236 77.357C60.0985 77.9822 59.2507 78.3334 58.3666 78.3334H5.03328C4.14923 78.3334 3.30138 77.9822 2.67626 77.357C2.05114 76.7319 1.69995 75.8841 1.69995 75V15C1.69995 14.116 2.05114 13.2681 2.67626 12.643C3.30138 12.0179 4.14923 11.6667 5.03328 11.6667H58.3666Z" fill="#E9EFFD"/>
<path d="M61.7001 47.4033L52.1534 51.8533L45.0334 61.6767L57.1368 62.5367L61.7001 60.4067V47.4033Z" fill="#BBCFF9"/>
<path d="M49.9999 21.6667C49.9999 22.5507 49.6487 23.3986 49.0236 24.0237C48.3985 24.6488 47.5506 25 46.6666 25H16.6666C15.7825 25 14.9347 24.6488 14.3096 24.0237C13.6844 23.3986 13.3333 22.5507 13.3333 21.6667V11.6667H49.9999V21.6667Z" fill="#BBCFF9"/>
<path d="M61.6999 63.3334V75C61.6999 75.8841 61.3488 76.7319 60.7236 77.357C60.0985 77.9822 59.2507 78.3334 58.3666 78.3334H5.03328C4.14923 78.3334 3.30138 77.9822 2.67626 77.357C2.05114 76.7319 1.69995 75.8841 1.69995 75V15C1.69995 14.116 2.05114 13.2681 2.67626 12.643C3.30138 12.0179 4.14923 11.6667 5.03328 11.6667H15.0333" stroke="#111827" stroke-width="2.5" stroke-linecap="round" stroke-linejoin="round"/>
<path d="M48.3667 11.6667H58.3667C59.2508 11.6667 60.0986 12.0179 60.7237 12.643C61.3488 13.2681 61.7 14.116 61.7 15V26.6667" stroke="#111827" stroke-width="2.5" stroke-linecap="round" stroke-linejoin="round"/>
<path d="M36.4168 8.33331H45.0334C45.9175 8.33331 46.7653 8.6845 47.3905 9.30962C48.0156 9.93474 48.3668 10.7826 48.3668 11.6666V15C48.3668 15.884 48.0156 16.7319 47.3905 17.357C46.7653 17.9821 45.9175 18.3333 45.0334 18.3333H18.3668C17.4827 18.3333 16.6349 17.9821 16.0098 17.357C15.3846 16.7319 15.0334 15.884 15.0334 15V11.6666C15.0334 10.7826 15.3846 9.93474 16.0098 9.30962C16.6349 8.6845 17.4827 8.33331 18.3668 8.33331H27.0001" fill="#E9EFFD"/>
<path d="M36.4168 8.33331H45.0334C45.9175 8.33331 46.7653 8.6845 47.3905 9.30962C48.0156 9.93474 48.3668 10.7826 48.3668 11.6666V15C48.3668 15.884 48.0156 16.7319 47.3905 17.357C46.7653 17.9821 45.9175 18.3333 45.0334 18.3333H18.3668C17.4827 18.3333 16.6349 17.9821 16.0098 17.357C15.3846 16.7319 15.0334 15.884 15.0334 15V11.6666C15.0334 10.7826 15.3846 9.93474 16.0098 9.30962C16.6349 8.6845 17.4827 8.33331 18.3668 8.33331H27.0001" stroke="#111827" stroke-width="2.5" stroke-linecap="round" stroke-linejoin="round"/>
<path d="M31.7 11.6667C32.6889 11.6667 33.6556 11.3734 34.4778 10.824C35.3 10.2746 35.9409 9.49374 36.3193 8.58011C36.6978 7.66648 36.7968 6.66114 36.6039 5.69124C36.411 4.72133 35.9347 3.83042 35.2355 3.13116C34.5362 2.43189 33.6453 1.95569 32.6754 1.76276C31.7055 1.56984 30.7002 1.66885 29.7865 2.04729C28.8729 2.42573 28.092 3.06659 27.5426 3.88884C26.9932 4.71108 26.7 5.67778 26.7 6.66669C26.7 7.99277 27.2267 9.26454 28.1644 10.2022C29.1021 11.1399 30.3739 11.6667 31.7 11.6667Z" fill="#BBCFF9" stroke="#111827" stroke-width="2.5" stroke-linecap="round" stroke-linejoin="round"/>
<path d="M11.7 31.6667H51.7" stroke="#111827" stroke-width="2.5" stroke-linecap="round" stroke-linejoin="round"/>
<path d="M11.7 45H43.2533" stroke="#111827" stroke-width="2.5" stroke-linecap="round" stroke-linejoin="round"/>
<path d="M11.7 58.3333H38.3099" stroke="#111827" stroke-width="2.5" stroke-linecap="round" stroke-linejoin="round"/>
<path d="M56.7001 58.3333L45.0334 61.6667L48.3668 50L68.3068 30.06C69.4179 28.9844 70.9072 28.3886 72.4536 28.4012C74 28.4137 75.4795 29.0336 76.573 30.1271C77.6665 31.2206 78.2864 32.7001 78.2989 34.2465C78.3115 35.7929 77.7157 37.2822 76.6401 38.3933L56.7001 58.3333Z" fill="#BBCFF9" stroke="#111827" stroke-width="2.5" stroke-linecap="round" stroke-linejoin="round"/>
</g>
<defs>
<clipPath id="clip0_57_192">
<rect width="80" height="80" fill="white"/>
</clipPath>
</defs>
</svg>
