<svg width="80" height="80" viewBox="0 0 80 80" fill="none" xmlns="http://www.w3.org/2000/svg">
<path d="M50 57.4633V66.5166C50 71.27 46 73.1833 40 73.1833C34 73.1833 30 71.27 30 66.5166V57.4633" fill="#E9EFFD"/>
<path d="M50 57.4633V66.5166C50 71.27 46 73.1833 40 73.1833C34 73.1833 30 71.27 30 66.5166V57.4633" stroke="#111827" stroke-width="2.5" stroke-linecap="round" stroke-linejoin="round"/>
<path d="M48.3333 58.1833C52.3256 56.6006 55.7406 53.8385 58.1228 50.2652C60.505 46.6919 61.7412 42.4773 61.6667 38.1833C61.564 32.4691 59.2483 27.0175 55.2071 22.9763C51.1658 18.935 45.7143 16.6193 40 16.5167C34.2855 16.6185 28.8335 18.9339 24.792 22.9754C20.7506 27.0168 18.4352 32.4688 18.3333 38.1833C18.2579 42.4775 19.4937 46.6925 21.8761 50.266C24.2584 53.8394 27.6738 56.6014 31.6667 58.1833H48.3333Z" fill="#BBCFF9"/>
<path d="M39.9999 27.4667C44.808 27.555 49.4555 29.2128 53.2341 32.1874C57.0127 35.162 59.7152 39.2903 60.9299 43.9433C61.4397 42.0664 61.6876 40.1281 61.6666 38.1833C61.5647 32.4688 59.2493 27.0168 55.2079 22.9754C51.1665 18.9339 45.7144 16.6185 39.9999 16.5167C34.2856 16.6193 28.8341 18.935 24.7929 22.9763C20.7516 27.0175 18.4359 32.4691 18.3332 38.1833C18.3124 40.1292 18.5603 42.0686 19.0699 43.9467C20.284 39.293 22.9863 35.1639 26.7649 32.1887C30.5436 29.2134 35.1913 27.5552 39.9999 27.4667Z" fill="#E9EFFD"/>
<path d="M48.3333 58.1833C52.3256 56.6006 55.7406 53.8385 58.1228 50.2652C60.505 46.6919 61.7412 42.4773 61.6667 38.1833C61.564 32.4691 59.2483 27.0175 55.2071 22.9763C51.1658 18.935 45.7143 16.6193 40 16.5167C34.2855 16.6185 28.8335 18.9339 24.792 22.9754C20.7506 27.0168 18.4352 32.4688 18.3333 38.1833C18.2579 42.4775 19.4937 46.6925 21.8761 50.266C24.2584 53.8394 27.6738 56.6014 31.6667 58.1833H48.3333Z" stroke="#111827" stroke-width="2.5" stroke-linecap="round" stroke-linejoin="round"/>
<path d="M43.3333 58.1833V38.1833C43.3333 37.524 43.5288 36.8796 43.8951 36.3314C44.2614 35.7832 44.782 35.356 45.3911 35.1037C46.0001 34.8514 46.6704 34.7854 47.317 34.914C47.9636 35.0426 48.5575 35.3601 49.0237 35.8263C49.4899 36.2925 49.8073 36.8864 49.936 37.533C50.0646 38.1796 49.9986 38.8498 49.7463 39.4589C49.494 40.068 49.0667 40.5886 48.5186 40.9549C47.9704 41.3211 47.3259 41.5166 46.6667 41.5166H33.3333C32.4493 41.5166 31.6014 41.1655 30.9763 40.5403C30.3512 39.9152 30 39.0674 30 38.1833C30 37.2993 30.3512 36.4514 30.9763 35.8263C31.6014 35.2012 32.4493 34.85 33.3333 34.85C33.7774 34.8259 34.2215 34.8957 34.6369 35.0547C35.0522 35.2137 35.4293 35.4584 35.7438 35.7728C36.0583 36.0873 36.303 36.4645 36.462 36.8798C36.621 37.2951 36.6907 37.7392 36.6667 38.1833V58.1833" stroke="#111827" stroke-width="2.5" stroke-linecap="round" stroke-linejoin="round"/>
<path d="M30 64.85H50" stroke="#111827" stroke-width="2.5" stroke-linecap="round" stroke-linejoin="round"/>
<path d="M40 1.81665V8.18332" stroke="#111827" stroke-width="2.5" stroke-linecap="round" stroke-linejoin="round"/>
<path d="M40 73.1833V78.1833" stroke="#111827" stroke-width="2.5" stroke-linecap="round" stroke-linejoin="round"/>
<path d="M3.33325 34.85H10.9699" stroke="#111827" stroke-width="2.5" stroke-linecap="round" stroke-linejoin="round"/>
<path d="M11.97 10.15L18.3333 16.5167" stroke="#111827" stroke-width="2.5" stroke-linecap="round" stroke-linejoin="round"/>
<path d="M76.6667 34.85H69.03" stroke="#111827" stroke-width="2.5" stroke-linecap="round" stroke-linejoin="round"/>
<path d="M68.0301 10.15L61.6667 16.5167" stroke="#111827" stroke-width="2.5" stroke-linecap="round" stroke-linejoin="round"/>
</svg>
