<svg width="80" height="80" viewBox="0 0 80 80" fill="none" xmlns="http://www.w3.org/2000/svg">
<path d="M15.0001 68.3333H65.0001C65.0001 68.3333 68.3334 68.3333 68.3334 71.6666V75C68.3334 75 68.3334 78.3333 65.0001 78.3333H15.0001C15.0001 78.3333 11.6667 78.3333 11.6667 75V71.6666C11.6667 71.6666 11.6667 68.3333 15.0001 68.3333Z" fill="#BBCFF9" stroke="#111827" stroke-width="2.5" stroke-linecap="round" stroke-linejoin="round"/>
<path d="M65 68.3334C65 66.5652 64.2976 64.8696 63.0474 63.6193C61.7971 62.3691 60.1014 61.6667 58.3333 61.6667H21.6667C19.8986 61.6667 18.2029 62.3691 16.9526 63.6193C15.7024 64.8696 15 66.5652 15 68.3334H65Z" fill="#BBCFF9" stroke="#111827" stroke-width="2.5" stroke-linecap="round" stroke-linejoin="round"/>
<path d="M33.2234 2.28003C41.2252 3.80605 48.4441 8.07538 53.6361 14.3523C58.8282 20.6293 61.6682 28.5207 61.6667 36.6667V55" stroke="#111827" stroke-width="2.5" stroke-linecap="round" stroke-linejoin="round"/>
<path d="M21.6667 61.6667H58.3334C56.1409 57.2827 54.9996 52.4483 55.0001 47.5467V36.6667C55.0002 29.5976 52.3578 22.7839 47.5916 17.5632C42.8255 12.3425 36.2799 9.09206 29.2401 8.45002C28.4207 6.61493 27.138 5.02459 25.518 3.83529C23.8979 2.64599 21.9964 1.89864 20.0001 1.66669C19.5581 1.66669 19.1341 1.84228 18.8216 2.15484C18.509 2.4674 18.3334 2.89133 18.3334 3.33335V10.86C16.2822 12.2306 14.6006 14.0859 13.4377 16.2616C12.2748 18.4374 11.6666 20.8664 11.6667 23.3334V38.3334C11.6667 39.2174 12.0179 40.0653 12.6431 40.6904C13.2682 41.3155 14.116 41.6667 15.0001 41.6667H18.3334C19.2951 41.6669 20.2309 41.355 21.0002 40.778C21.7696 40.201 22.331 39.39 22.6001 38.4667L24.0001 33.6667C24.1687 33.0899 24.5197 32.5832 25.0004 32.2227C25.4812 31.8621 26.0658 31.667 26.6667 31.6667C27.9928 31.6667 29.2646 31.1399 30.2023 30.2022C31.14 29.2645 31.6667 27.9928 31.6667 26.6667C31.6611 32.816 29.9374 38.8414 26.6901 44.0634C23.3974 49.3437 21.6566 55.4439 21.6667 61.6667Z" fill="#BBCFF9"/>
<path d="M22.3334 55C21.8891 57.1944 21.6658 59.4278 21.6668 61.6667H58.3334C57.2718 59.5433 56.4533 57.307 55.8934 55H22.3334Z" fill="#BBCFF9"/>
<path d="M21.6667 61.6667H58.3334C56.1409 57.2827 54.9996 52.4483 55.0001 47.5467V36.6667C55.0002 29.5976 52.3578 22.7839 47.5916 17.5632C42.8255 12.3425 36.2799 9.09206 29.2401 8.45002C28.4207 6.61493 27.138 5.02459 25.518 3.83529C23.8979 2.64599 21.9964 1.89864 20.0001 1.66669C19.5581 1.66669 19.1341 1.84228 18.8216 2.15484C18.509 2.4674 18.3334 2.89133 18.3334 3.33335V10.86C16.2822 12.2306 14.6006 14.0859 13.4377 16.2616C12.2748 18.4374 11.6666 20.8664 11.6667 23.3334V38.3334C11.6667 39.2174 12.0179 40.0653 12.6431 40.6904C13.2682 41.3155 14.116 41.6667 15.0001 41.6667H18.3334C19.2951 41.6669 20.2309 41.355 21.0002 40.778C21.7696 40.201 22.331 39.39 22.6001 38.4667L24.0001 33.6667C24.1687 33.0899 24.5197 32.5832 25.0004 32.2227C25.4812 31.8621 26.0658 31.667 26.6667 31.6667C27.9928 31.6667 29.2646 31.1399 30.2023 30.2022C31.14 29.2645 31.6667 27.9928 31.6667 26.6667C31.6611 32.816 29.9374 38.8414 26.6901 44.0634C23.3974 49.3437 21.6566 55.4439 21.6667 61.6667Z" stroke="#111827" stroke-width="2.5" stroke-linecap="round" stroke-linejoin="round"/>
</svg>
