<svg width="38" height="38" viewBox="0 0 38 38" fill="none" xmlns="http://www.w3.org/2000/svg">
<path d="M35.625 19V2.38448C35.6269 2.13191 35.5679 1.88258 35.4531 1.65759C35.3384 1.43259 35.1711 1.23852 34.9655 1.09178C34.7599 0.945041 34.522 0.849941 34.272 0.814513C34.0219 0.779085 33.7669 0.804371 33.5287 0.888234C27.1494 3.26323 10.8506 3.26323 4.47133 0.888234C4.23294 0.804324 3.97786 0.779054 3.72764 0.814563C3.47743 0.850071 3.23944 0.945313 3.03382 1.09223C2.82819 1.23915 2.66097 1.43343 2.54629 1.65864C2.43162 1.88385 2.37286 2.13336 2.375 2.38607V19C2.375 29.0541 15.8333 37.2083 19 37.2083C22.1667 37.2083 35.625 29.0541 35.625 19Z" fill="#DEE8FC"/>
<path d="M19 2.6679C14.0945 2.82254 9.19444 2.22231 4.47133 0.888234C4.23294 0.804324 3.97786 0.779054 3.72764 0.814563C3.47743 0.850071 3.23944 0.945313 3.03382 1.09223C2.82819 1.23915 2.66097 1.43343 2.54629 1.65864C2.43162 1.88385 2.37286 2.13336 2.375 2.38607V19C2.375 29.0541 15.8333 37.2083 19 37.2083V2.6679Z" fill="#14B8A6"/>
<path d="M35.625 19V2.38448C35.6269 2.13191 35.5679 1.88258 35.4531 1.65759C35.3384 1.43259 35.1711 1.23852 34.9655 1.09178C34.7599 0.945041 34.522 0.849941 34.272 0.814513C34.0219 0.779085 33.7669 0.804371 33.5287 0.888234C27.1494 3.26323 10.8506 3.26323 4.47133 0.888234C4.23294 0.804324 3.97786 0.779054 3.72764 0.814563C3.47743 0.850071 3.23944 0.945313 3.03382 1.09223C2.82819 1.23915 2.66097 1.43343 2.54629 1.65864C2.43162 1.88385 2.37286 2.13336 2.375 2.38607V19C2.375 29.0541 15.8333 37.2083 19 37.2083C22.1667 37.2083 35.625 29.0541 35.625 19Z" stroke="#111827" stroke-width="1.2" stroke-linecap="round" stroke-linejoin="round"/>
<path d="M22.9583 13.4583C22.9583 12.6184 23.292 11.813 23.8858 11.2191C24.4797 10.6253 25.2852 10.2916 26.125 10.2916C26.9649 10.2916 27.7703 10.6253 28.3642 11.2191C28.958 11.813 29.2917 12.6184 29.2917 13.4583" stroke="#111827" stroke-width="1.2" stroke-linecap="round" stroke-linejoin="round"/>
<path d="M8.70834 13.4583C8.70834 12.6184 9.04197 11.813 9.63584 11.2191C10.2297 10.6253 11.0352 10.2916 11.875 10.2916C12.7149 10.2916 13.5203 10.6253 14.1142 11.2191C14.708 11.813 15.0417 12.6184 15.0417 13.4583" stroke="#111827" stroke-width="1.2" stroke-linecap="round" stroke-linejoin="round"/>
<path d="M12.6667 21.375C12.6667 23.0547 13.3339 24.6656 14.5216 25.8533C15.7094 27.0411 17.3203 27.7083 19 27.7083C20.6797 27.7083 22.2906 27.0411 23.4783 25.8533C24.6661 24.6656 25.3333 23.0547 25.3333 21.375" stroke="#111827" stroke-width="1.2" stroke-linecap="round" stroke-linejoin="round"/>
</svg>
