<svg width="86" height="86" viewBox="0 0 86 86" fill="none" xmlns="http://www.w3.org/2000/svg">
<path d="M75.9917 16.125C76.6637 16.7968 77.0414 17.7081 77.0416 18.6584V80.625C77.0416 81.5753 76.6641 82.4868 75.9921 83.1588C75.3201 83.8308 74.4086 84.2083 73.4583 84.2083H12.5416C11.5912 84.2083 10.6798 83.8308 10.0078 83.1588C9.33578 82.4868 8.95825 81.5753 8.95825 80.625V5.37496C8.95825 4.42461 9.33578 3.51317 10.0078 2.84117C10.6798 2.16916 11.5912 1.79163 12.5416 1.79163H60.1748C61.1241 1.78993 62.0352 2.16496 62.7083 2.83438L75.9917 16.125Z" fill="#BBCFF9"/>
<path d="M69.2335 9.36322L62.7083 2.83438C62.0352 2.16496 61.1241 1.78993 60.1748 1.79163H12.5416C11.5912 1.79163 10.6798 2.16916 10.0078 2.84117C9.33578 3.51317 8.95825 4.42461 8.95825 5.37497V69.6349L69.2335 9.36322Z" fill="white"/>
<path d="M51.9583 19.7084H66.2916" stroke="#111827" stroke-width="2.5" stroke-linecap="round" stroke-linejoin="round"/>
<path d="M19.7083 51.9584H66.2916" stroke="#111827" stroke-width="2.5" stroke-linecap="round" stroke-linejoin="round"/>
<path d="M19.7083 62.7084H66.2916" stroke="#111827" stroke-width="2.5" stroke-linecap="round" stroke-linejoin="round"/>
<path d="M19.7083 73.4584H66.2916" stroke="#111827" stroke-width="2.5" stroke-linecap="round" stroke-linejoin="round"/>
<path d="M51.9583 30.4584H66.2916" stroke="#111827" stroke-width="2.5" stroke-linecap="round" stroke-linejoin="round"/>
<path d="M51.9583 41.2084H66.2916" stroke="#111827" stroke-width="2.5" stroke-linecap="round" stroke-linejoin="round"/>
<path d="M19.7083 19.7083V16.125H41.2083V19.7083" stroke="#111827" stroke-width="2.5" stroke-linecap="round" stroke-linejoin="round"/>
<path d="M30.4583 16.125V41.2083" stroke="#111827" stroke-width="2.5" stroke-linecap="round" stroke-linejoin="round"/>
<path d="M23.2917 41.2084H37.6251" stroke="#111827" stroke-width="2.5" stroke-linecap="round" stroke-linejoin="round"/>
<path d="M75.9917 16.125C76.6637 16.7968 77.0414 17.7081 77.0416 18.6584V80.625C77.0416 81.5753 76.6641 82.4868 75.9921 83.1588C75.3201 83.8308 74.4086 84.2083 73.4583 84.2083H12.5416C11.5912 84.2083 10.6798 83.8308 10.0078 83.1588C9.33578 82.4868 8.95825 81.5753 8.95825 80.625V5.37496C8.95825 4.42461 9.33578 3.51317 10.0078 2.84117C10.6798 2.16916 11.5912 1.79163 12.5416 1.79163H60.1748C61.1241 1.78993 62.0352 2.16496 62.7083 2.83438L75.9917 16.125Z" stroke="#111827" stroke-width="2.5" stroke-linecap="round" stroke-linejoin="round"/>
</svg>
