<svg width="38" height="38" viewBox="0 0 38 38" fill="none" xmlns="http://www.w3.org/2000/svg">
<g clip-path="url(#clip0_214_127)">
<path d="M35.4192 9.15007L33.6775 10.7492L27.2492 4.3209L28.8483 2.57923C29.3149 2.07345 29.9335 1.73341 30.6106 1.61056C31.2877 1.48772 31.9863 1.58876 32.6008 1.8984L34.9442 3.05423L36.1158 5.39757C36.4236 6.01372 36.5221 6.7134 36.3964 7.39056C36.2706 8.06772 35.9276 8.68544 35.4192 9.15007Z" fill="#BBCFF9"/>
<path d="M33.6775 10.7493L9.18332 33.2959L4.71832 28.8151L27.2492 4.32092L33.6775 10.7493Z" fill="#14B8A6"/>
<path d="M34.9394 3.06054L37.2083 0.791626" stroke="#111827" stroke-width="1.2" stroke-linecap="round" stroke-linejoin="round"/>
<path d="M14.2342 10.3376H15.8175C16.24 10.3329 16.6438 10.1623 16.9417 9.86263L23.75 3.05429C24.0467 2.7594 24.448 2.59387 24.8662 2.59387C25.2845 2.59387 25.6858 2.7594 25.9825 3.05429L27.2492 4.32096" stroke="#111827" stroke-width="1.2" stroke-linecap="round" stroke-linejoin="round"/>
<path d="M9.18333 33.2959L1.91583 36.0826L4.71833 28.8151L9.18333 33.2959Z" fill="#14B8A6"/>
<path d="M1.91107 36.0889L0.791656 37.2083" stroke="#111827" stroke-width="1.2" stroke-linecap="round" stroke-linejoin="round"/>
<path d="M34.9758 3.13499L30.5267 7.59999L27.2492 4.32249L28.8483 2.58082C29.3149 2.07504 29.9335 1.73499 30.6106 1.61215C31.2877 1.48931 31.9863 1.59035 32.6008 1.89999L34.9442 3.05582L34.9758 3.13499Z" fill="#14B8A6"/>
<path d="M30.5267 7.60001L7.01416 31.1125L4.71832 28.8167L27.2492 4.32251L30.5267 7.60001Z" fill="#E9EFFD"/>
<path d="M7.01417 31.1125L2.12167 36.005L1.91583 36.0842L4.71833 28.8167L7.01417 31.1125Z" fill="#E9EFFD"/>
<path d="M35.4192 9.15007L33.6775 10.7492L27.2492 4.3209L28.8483 2.57923C29.3149 2.07345 29.9335 1.73341 30.6106 1.61056C31.2877 1.48772 31.9863 1.58876 32.6008 1.8984L34.9442 3.05423L36.1158 5.39757C36.4236 6.01372 36.5221 6.7134 36.3964 7.39056C36.2706 8.06772 35.9276 8.68544 35.4192 9.15007Z" stroke="#111827" stroke-width="1.2" stroke-linecap="round" stroke-linejoin="round"/>
<path d="M33.6775 10.7493L9.18332 33.2959L4.71832 28.8151L27.2492 4.32092L33.6775 10.7493Z" stroke="#111827" stroke-width="1.2" stroke-linecap="round" stroke-linejoin="round"/>
<path d="M9.18333 33.2959L1.91583 36.0826L4.71833 28.8151L9.18333 33.2959Z" stroke="#111827" stroke-width="1.2" stroke-linecap="round" stroke-linejoin="round"/>
</g>
<defs>
<clipPath id="clip0_214_127">
<rect width="38" height="38" fill="white"/>
</clipPath>
</defs>
</svg>
