<svg width="38" height="38" viewBox="0 0 38 38" fill="none" xmlns="http://www.w3.org/2000/svg">
<g clip-path="url(#clip0_51_17208)">
<path d="M5.29624 28.1422L9.87207 32.7022L0.736237 37.2622L5.29624 28.1422Z" fill="#BBCFF9"/>
<path d="M5.30417 28.1438L29.3566 4.07239L33.9213 8.63555L9.86892 32.7054L5.30417 28.1438Z" fill="#E9EFFD"/>
<path d="M36.2029 6.35553L33.9229 8.63553L29.3629 4.07553L31.6429 1.79553C32.0377 1.3611 32.5429 1.04185 33.1047 0.871776C33.6665 0.701698 34.2639 0.687157 34.8333 0.8297C35.4004 0.972321 35.9181 1.26627 36.3311 1.68017C36.7441 2.09406 37.037 2.61236 37.1784 3.17972C37.3199 3.74708 37.3046 4.3422 37.1341 4.90153C36.9637 5.46087 36.6446 5.96342 36.2108 6.35553H36.2029Z" fill="#E9EFFD"/>
<path d="M33.9229 8.63553L9.87207 32.7022L7.49707 30.3272L31.5637 6.27637L33.9229 8.63553Z" fill="#BBCFF9"/>
<path d="M36.2029 6.35554L33.9229 8.63554L31.5638 6.27637L36.2346 1.58337C36.6957 2.00716 37.0208 2.55817 37.1688 3.16671C37.3122 3.73585 37.2981 4.3333 37.128 4.89504C36.9578 5.45678 36.6381 5.96165 36.2029 6.35554Z" fill="#BBCFF9"/>
<path d="M18.9652 28.6251C23.1958 30.7848 26.5968 30.4048 28.4446 28.557C30.2417 26.76 30.7848 23.0423 28.9386 18.6422" fill="#14B8A6"/>
<path d="M28.4446 28.5571C28.3135 28.6913 28.1704 28.8132 28.0171 28.9212L23.3463 24.2504L28.9354 18.6454C30.7879 23.0471 30.2496 26.7584 28.4446 28.5571Z" fill="white"/>
<path d="M19.4592 8.9078C18.5264 8.23673 17.5621 7.6106 16.5696 7.03155V10.3486C16.5696 10.3486 14.3608 9.79447 13.6325 5.46088C9.5063 3.47804 5.18404 1.93221 0.736237 0.848633C0.736237 0.848633 3.20149 11.8512 8.7954 19.5715" fill="#14B8A6"/>
<path d="M19.475 8.9078L13.7433 14.6395L1.0054 1.90947C0.815403 1.22863 0.736237 0.848633 0.736237 0.848633C5.18229 1.92739 9.50227 3.47175 13.6246 5.45613C14.3529 9.79447 16.5696 10.3486 16.5696 10.3486V7.03947C17.5512 7.60947 18.5329 8.2428 19.475 8.9078Z" fill="white"/>
<path d="M5.30417 28.1438L29.3566 4.07239L33.9213 8.63555L9.86892 32.7054L5.30417 28.1438Z" stroke="#111827" stroke-width="1.2" stroke-linecap="round" stroke-linejoin="round"/>
<path d="M5.29624 28.1422L9.87207 32.7022L0.736237 37.2622L5.29624 28.1422Z" stroke="#111827" stroke-width="1.2" stroke-linecap="round" stroke-linejoin="round"/>
<path d="M36.2029 6.35553L33.9229 8.63553L29.3629 4.07553L31.6429 1.79553C32.0377 1.3611 32.5429 1.04185 33.1047 0.871776C33.6665 0.701698 34.2639 0.687157 34.8333 0.8297C35.4004 0.972321 35.9181 1.26627 36.3311 1.68017C36.7441 2.09406 37.037 2.61236 37.1784 3.17972C37.3199 3.74708 37.3046 4.3422 37.1341 4.90153C36.9637 5.46087 36.6446 5.96342 36.2108 6.35553H36.2029Z" stroke="#111827" stroke-width="1.2" stroke-linecap="round" stroke-linejoin="round"/>
<path d="M37.1529 37.2653L28.4446 28.557" stroke="#111827" stroke-width="1.2" stroke-linecap="round" stroke-linejoin="round"/>
<path d="M18.9652 28.6251C23.1958 30.7848 26.5968 30.4048 28.4446 28.557C30.2417 26.76 30.7848 23.0423 28.9386 18.6422" stroke="#111827" stroke-width="1.2" stroke-linecap="round" stroke-linejoin="round"/>
<path d="M19.4592 8.9078C18.5264 8.23673 17.5621 7.6106 16.5696 7.03155V10.3486C16.5696 10.3486 14.3608 9.79447 13.6325 5.46088C9.5063 3.47804 5.18404 1.93221 0.736237 0.848633C0.736237 0.848633 3.20149 11.8512 8.7954 19.5715" stroke="#111827" stroke-width="1.2" stroke-linecap="round" stroke-linejoin="round"/>
</g>
<defs>
<clipPath id="clip0_51_17208">
<rect width="38" height="38" fill="white"/>
</clipPath>
</defs>
</svg>
