<svg width="86" height="86" viewBox="0 0 86 86" fill="none" xmlns="http://www.w3.org/2000/svg">
<g clip-path="url(#clip0_51_17259)">
<path d="M12.5417 16.125H5.37508C4.42472 16.125 3.51329 16.5025 2.84128 17.1745C2.16928 17.8465 1.79175 18.758 1.79175 19.7083V80.625C1.79175 81.5754 2.16928 82.4868 2.84128 83.1588C3.51329 83.8308 4.42472 84.2083 5.37508 84.2083H66.2917C67.2421 84.2083 68.1535 83.8308 68.8256 83.1588C69.4976 82.4868 69.8751 81.5754 69.8751 80.625V73.4583" fill="#BBCFF9"/>
<path d="M12.5417 16.125H5.37508C4.42472 16.125 3.51329 16.5025 2.84128 17.1745C2.16928 17.8465 1.79175 18.758 1.79175 19.7083V80.625C1.79175 81.5754 2.16928 82.4868 2.84128 83.1588C3.51329 83.8308 4.42472 84.2083 5.37508 84.2083H66.2918C67.2421 84.2083 68.1535 83.8308 68.8256 83.1588C69.4976 82.4868 69.8751 81.5754 69.8751 80.625V73.4583" stroke="#111827" stroke-width="2.5" stroke-linecap="round" stroke-linejoin="round"/>
<path d="M84.2084 5.37496C84.2084 4.4246 83.8309 3.51317 83.1589 2.84116C82.4869 2.16915 81.5754 1.79163 80.6251 1.79163H16.1251C15.1747 1.79163 14.2633 2.16915 13.5913 2.84116C12.9193 3.51317 12.5417 4.4246 12.5417 5.37496V69.875C12.5417 70.8253 12.9193 71.7368 13.5913 72.4088C14.2633 73.0808 15.1747 73.4583 16.1251 73.4583H80.6251C81.5754 73.4583 82.4869 73.0808 83.1589 72.4088C83.8309 71.7368 84.2084 70.8253 84.2084 69.875V5.37496Z" fill="#BBCFF9"/>
<path d="M13.6167 72.3833L83.1621 2.83797C82.8287 2.50542 82.433 2.24184 81.9977 2.06231C81.5624 1.88277 81.096 1.79079 80.6251 1.79163H16.1251C15.1747 1.79163 14.2633 2.16916 13.5913 2.84117C12.9193 3.51317 12.5417 4.42461 12.5417 5.37496V69.875C12.5552 70.8201 12.9416 71.7217 13.6167 72.3833Z" fill="white"/>
<path d="M84.2084 5.37496C84.2084 4.4246 83.8309 3.51317 83.1589 2.84116C82.4869 2.16915 81.5754 1.79163 80.6251 1.79163H16.1251C15.1747 1.79163 14.2633 2.16915 13.5913 2.84116C12.9193 3.51317 12.5417 4.4246 12.5417 5.37496V69.875C12.5417 70.8253 12.9193 71.7368 13.5913 72.4088C14.2633 73.0808 15.1747 73.4583 16.1251 73.4583H80.6251C81.5754 73.4583 82.4869 73.0808 83.1589 72.4088C83.8309 71.7368 84.2084 70.8253 84.2084 69.875V5.37496Z" stroke="#111827" stroke-width="2.5" stroke-linecap="round" stroke-linejoin="round"/>
<path d="M26.8606 16.1143H69.8606" stroke="#111827" stroke-width="2.5" stroke-linecap="round" stroke-linejoin="round"/>
<path d="M26.8606 30H69.8606" stroke="#111827" stroke-width="2.5" stroke-linecap="round" stroke-linejoin="round"/>
<path d="M26.8606 44.7809H69.8606" stroke="#111827" stroke-width="2.5" stroke-linecap="round" stroke-linejoin="round"/>
<path d="M26.8606 59.1143H46.5833" stroke="#111827" stroke-width="2.5" stroke-linecap="round" stroke-linejoin="round"/>
</g>
<defs>
<clipPath id="clip0_51_17259">
<rect width="86" height="86" fill="white"/>
</clipPath>
</defs>
</svg>
